HIERARCHY
ROOT hip
{
	OFFSET 0.000000 0.000000 0.000000 
	CHANNELS 6 Xposition Yposition Zposition Xrotation Zrotation Yrotation
	JOINT abdomen
	{
		OFFSET 0.000000 3.402643 0.000000 
		CHANNELS 3 Xrotation Zrotation Yrotation
		JOINT chest
		{
			OFFSET 0.000000 8.438565 -0.680529 
			CHANNELS 3 Xrotation Zrotation Yrotation
			JOINT neck
			{
				OFFSET 0.000000 10.207942 -0.272212 
				CHANNELS 3 Xrotation Zrotation Yrotation
				JOINT head
				{
					OFFSET 0.000000 3.130431 0.000000 
					CHANNELS 3 Xrotation Zrotation Yrotation
					End Site
					{
						OFFSET 0.000000 3.130435 0.000000 
					}
				}
			}
			JOINT lCollar
			{
				OFFSET 3.470700 6.669187 -0.816635 
				CHANNELS 3 Yrotation Zrotation Xrotation
				JOINT lShldr
				{
					OFFSET 3.198488 0.000000 0.000000 
					CHANNELS 3 Zrotation Yrotation Xrotation
					JOINT lForeArm
					{
						OFFSET 10.139888 0.000000 0.000000 
						CHANNELS 3 Yrotation Zrotation Xrotation
						JOINT lHand
						{
							OFFSET 8.370511 0.000000 0.000000 
							CHANNELS 3 Zrotation Yrotation Xrotation
							End Site
							{
								OFFSET 4.083176 0.000000 0.000000 
							}
						}
					}
				}
			}
			JOINT rCollar
			{
				OFFSET -3.470700 6.669187 -0.816635 
				CHANNELS 3 Yrotation Zrotation Xrotation
				JOINT rShldr
				{
					OFFSET -3.198488 0.000000 0.000000 
					CHANNELS 3 Zrotation Yrotation Xrotation
					JOINT rForeArm
					{
						OFFSET -10.139888 0.000000 0.000000 
						CHANNELS 3 Yrotation Zrotation Xrotation
						JOINT rHand
						{
							OFFSET -8.370511 0.000000 0.000000 
							CHANNELS 3 Zrotation Yrotation Xrotation
							End Site
							{
								OFFSET -4.083176 0.000000 0.000000 
							}
						}
					}
				}
			}
		}
	}
	JOINT lThigh
	{
		OFFSET 5.308129 -1.633274 1.361059 
		CHANNELS 3 Xrotation Zrotation Yrotation
		JOINT lShin
		{
			OFFSET -2.041588 -20.007561 0.000000 
			CHANNELS 3 Xrotation Zrotation Yrotation
			JOINT lFoot
			{
				OFFSET 0.000000 -19.190928 -1.224953 
				CHANNELS 3 Xrotation Yrotation Zrotation
				End Site
				{
					OFFSET 0.000000 -2.449906 4.627600 
				}
			}
		}
	}
	JOINT rThigh
	{
		OFFSET -5.308129 -1.633274 1.361059 
		CHANNELS 3 Xrotation Zrotation Yrotation
		JOINT rShin
		{
			OFFSET 2.041588 -20.007561 0.000000 
			CHANNELS 3 Xrotation Zrotation Yrotation
			JOINT rFoot
			{
				OFFSET 0.000000 -19.190928 -1.224953 
				CHANNELS 3 Xrotation Yrotation Zrotation
				End Site
				{
					OFFSET 0.000000 -2.449906 4.627600 
				}
			}
		}
	}
}
MOTION
Frames: 8
Frame Time: 0.011111
24.082500 43.815948 -5.885843 6.132867 0.242743 18.795654 0.000000 0.000000 0.000000 -6.683883 -3.695485 0.373893 11.479177 -6.610796 -7.650297 4.459415 14.933312 -8.871494 4.332969 -9.940353 0.153230 -68.862839 -5.389519 26.517515 -15.898397 -7.445010 -0.593244 -7.516720 -9.184147 28.959702 -13.239695 6.140128 0.504692 71.958153 8.741845 63.907921 15.073994 -7.725438 0.985278 -3.863345 19.068548 -3.817400 3.600000 1.649694 3.339647 4.703789 -8.125704 -1.621954 -10.165130 7.755916 9.272427 5.145769 -9.970984 -5.470306 -1.346338 4.030766 -1.752482 -10.348285 5.840939 -2.501440 
24.082504 43.815948 -5.885840 6.132867 0.242743 18.795654 0.000000 0.000000 0.000000 -6.674170 -3.705259 0.374396 11.459006 -6.512259 -7.731457 3.753463 12.417706 -8.211936 4.223475 -9.914244 0.093768 -68.895386 -5.361834 26.573994 -15.383963 -6.988893 -0.527115 -8.222553 -10.965075 29.373512 -13.368338 6.172502 0.546052 71.928627 8.791717 63.832592 14.281547 -7.654426 0.905942 -4.668540 21.194668 -4.710984 3.595643 1.637944 3.348715 4.701984 -8.104018 -1.641001 -10.174940 7.780274 9.263725 5.145768 -9.970984 -5.470306 -1.346338 4.030766 -1.752482 -10.348284 5.840940 -2.501440 
24.137436 43.872559 -5.659799 3.926482 1.081441 18.472830 0.000000 0.000000 0.000000 -4.677579 -3.669412 0.699803 11.893382 -6.628835 -7.742731 3.930160 12.041090 -8.163373 4.288015 -10.294654 0.123800 -68.441513 -5.146081 27.093620 -16.322403 -7.485821 -0.619590 -7.380745 -8.247762 27.964636 -14.498277 6.544519 0.623434 71.424644 10.136495 66.394623 15.166327 -6.845268 0.998287 -3.332217 17.693083 -4.351524 6.504824 1.541949 3.016328 4.047662 -8.005238 -0.866949 -9.413655 7.989614 7.265276 7.772623 -10.096787 -3.553967 -1.424781 4.049524 0.066936 -10.102161 2.136877 -2.683919 
24.139656 43.870396 -5.628369 3.799607 1.159556 18.377968 0.000000 0.000000 0.000000 -4.481966 -3.689885 0.806008 11.568169 -6.478243 -7.838249 4.262608 11.861377 -8.236618 4.237589 -10.237033 0.099404 -68.486748 -5.216355 27.362806 -16.554924 -7.377300 -0.622393 -7.397310 -7.886281 27.614250 -15.128295 6.580777 0.645764 71.384933 10.663555 67.011978 15.304972 -6.576530 0.956497 -3.082845 17.273762 -4.295674 6.679317 1.522474 2.954443 4.047467 -7.994507 -0.681672 -9.380370 7.990189 6.918828 7.816165 -10.158498 -3.008806 -1.199128 4.087448 0.648585 -10.285177 1.122324 -2.871920 
24.137865 43.867344 -5.600463 3.702009 1.218157 18.282127 0.000000 0.000000 0.000000 -4.325489 -3.710135 0.904840 11.223923 -6.385778 -7.889254 4.575059 11.651621 -8.265036 4.256826 -10.186163 0.128496 -68.480125 -5.313288 27.565327 -16.712053 -7.393185 -0.612681 -7.355256 -7.564358 27.279959 -15.670163 6.614645 0.707513 71.315720 11.184552 67.564987 15.472071 -6.283623 0.931107 -2.863434 16.834785 -4.283460 6.760887 1.513160 2.919217 4.106777 -7.986421 -0.512458 -9.378074 7.986936 6.573216 7.761639 -10.242719 -2.483005 -0.888060 4.137826 1.177916 -10.518263 0.178817 -3.061867 
24.133791 43.866154 -5.570971 3.604398 1.267021 18.205002 0.000000 0.000000 0.000000 -4.159173 -3.720672 0.972927 10.958449 -6.324032 -7.917479 4.826684 11.479587 -8.270787 4.286273 -10.169493 0.093237 -68.437256 -5.335376 27.714767 -17.013000 -7.274706 -0.618256 -7.411274 -7.222078 26.959881 -16.103739 6.650737 0.718571 71.222054 11.587560 68.062653 15.646255 -6.189455 0.919797 -2.604701 16.464193 -4.295485 6.830825 1.542840 2.859713 4.233124 -7.975989 -0.389554 -9.388051 7.986794 6.294463 7.665254 -10.282338 -2.059853 -0.468195 4.193205 1.695794 -10.755044 -0.645737 -3.219447 
24.125616 43.863544 -5.539368 3.506785 1.315892 18.137476 0.000000 0.000000 0.000000 -3.992808 -3.721440 1.020746 10.722323 -6.260087 -7.938321 5.017976 11.326018 -8.282875 4.316080 -10.167274 0.127580 -68.321388 -5.395257 27.751303 -17.181993 -7.307199 -0.655276 -7.389134 -6.929285 26.734175 -16.488810 6.698127 0.757086 71.064842 11.957401 68.428993 15.857671 -6.035836 0.905623 -2.405740 16.132500 -4.342932 6.861467 1.581908 2.872658 4.428525 -7.992891 -0.362193 -9.417172 8.008130 6.059937 7.525226 -10.327000 -1.736411 0.038762 4.258337 2.161085 -11.026256 -1.295974 -3.349999 
24.112629 43.858944 -5.507312 3.428681 1.345245 18.078844 0.000000 0.000000 0.000000 -3.836272 -3.731878 1.060082 10.515346 -6.184401 -7.952038 5.149198 11.181333 -8.296211 4.326238 -10.188176 0.112988 -68.145027 -5.387425 27.744947 -17.550568 -7.159922 -0.657284 -7.533778 -6.625313 26.498602 -16.815231 6.747030 0.820335 70.873703 12.294573 68.678650 16.091549 -5.969272 0.908771 -2.207088 15.908190 -4.409873 6.837860 1.639646 2.920728 4.693598 -8.033875 -0.401222 -9.520103 8.026763 5.894788 7.293816 -10.360809 -1.497774 0.683208 4.333987 2.579186 -11.360945 -1.795900 -3.508736 
